# xmcd CD database file
#
# Track frame offsets:
#	150
#	15617
#	31645
#	47220
#	60892
#	72747
#
# Disc length: 1195 seconds
#
# Revision: 0
# Processed by: cddbd v1.5.2PL0 Copyright (c) Steve Scherf et al.
# Submitted via: CDex 1.70beta2
#
DISCID=4604a906
DTITLE=Les Pommes de ma Douche - Emules de Django,Disciples de Brassens
DYEAR=2011
DGENRE=Jazz
TTITLE0=La Parapluie
TTITLE1=L' Orage
TTITLE2=La Marine
TTITLE3=La Fille À Cent Sous
TTITLE4=Les Amoureux Des Bancs Publics
TTITLE5=La Femme D' Hector
EXTD=YEAR: 2011
EXTT0=
EXTT1=
EXTT2=
EXTT3=
EXTT4=
EXTT5=
PLAYORDER=
